<?xml version="1.0" standalone="no"?>
<!DOCTYPE svg PUBLIC "-//W3C//DTD SVG 20010904//EN"
 "http://www.w3.org/TR/2001/REC-SVG-20010904/DTD/svg10.dtd">
<svg version="1.0" xmlns="http://www.w3.org/2000/svg"
 width="648.000000pt" height="648.000000pt" viewBox="0 0 648.000000 648.000000"
 preserveAspectRatio="xMidYMid meet">
<metadata>
Created by potrace 1.14, written by Peter Selinger 2001-2017
</metadata>
<g transform="translate(0.000000,648.000000) scale(0.100000,-0.100000)"
fill="#000000" stroke="none">
<path d="M3031 6449 c-301 -67 -555 -262 -692 -532 -35 -68 -85 -213 -95 -277
-4 -25 -9 -294 -11 -597 l-4 -553 186 0 185 0 0 478 c1 262 3 502 5 532 9 130
73 274 167 371 101 105 186 153 348 196 20 6 221 5 240 0 8 -2 29 -7 45 -11
28 -7 44 -13 105 -40 153 -66 296 -229 342 -391 6 -22 14 -47 16 -55 3 -8 7
-309 9 -667 l4 -653 -1463 -1 c-805 0 -1483 -2 -1508 -5 -47 -6 -191 -39 -225
-52 -81 -32 -229 -117 -289 -167 -134 -112 -214 -215 -286 -367 -62 -134 -84
-236 -84 -408 -1 -175 8 -233 60 -370 23 -62 106 -218 122 -230 4 -3 19 -21
33 -40 82 -110 254 -241 392 -298 67 -28 104 -40 222 -69 17 -4 279 -8 583
-10 l552 -4 0 186 0 185 -482 1 c-266 0 -505 2 -533 5 -204 18 -393 152 -491
349 -25 50 -47 102 -50 115 -18 105 -21 145 -18 212 10 211 149 426 335 520
67 34 94 45 124 54 74 20 238 23 1558 24 l1447 0 0 -565 0 -565 185 0 185 0
-1 1408 c0 1524 2 1469 -55 1632 -118 342 -402 589 -764 664 -96 20 -297 18
-399 -5z"/>
<path d="M4490 4066 l0 -186 493 -1 c270 0 516 -2 544 -5 127 -11 270 -80 368
-179 212 -212 251 -528 97 -787 -95 -160 -288 -287 -461 -303 -26 -2 -661 -4
-1413 -4 l-1368 -1 0 -185 0 -185 566 0 565 0 -4 -652 c-2 -359 -6 -664 -10
-677 -71 -257 -253 -433 -500 -484 -65 -13 -183 -15 -242 -3 -16 3 -40 8 -51
10 -76 15 -236 108 -289 168 -103 114 -163 235 -179 359 -3 19 -5 652 -5 1407
l-1 1372 -185 0 -185 0 0 -1407 0 -1408 24 -106 c31 -137 75 -242 147 -348
156 -233 392 -388 667 -439 20 -4 105 -6 187 -6 122 1 166 5 235 23 104 27
251 95 334 155 141 100 280 274 345 430 35 84 74 223 66 236 -3 5 -1 11 4 15
6 3 10 264 11 677 0 370 2 673 4 675 1 1 299 3 662 4 640 1 706 4 812 33 12 3
30 8 40 10 9 2 28 9 42 14 60 24 85 33 90 34 3 0 10 3 15 8 6 4 33 20 60 36
167 92 318 256 406 439 73 155 94 249 94 430 -1 87 -6 175 -14 210 -84 383
-356 665 -746 776 -78 23 -92 23 -652 27 l-573 3 0 -185z"/>
<path d="M2791 3620 c-9 -7 -8 -226 1 -236 10 -9 906 -9 916 0 11 12 9 236 -3
237 -47 4 -909 3 -914 -1z"/>
<path d="M2796 3078 c-8 -5 -12 -41 -11 -120 l0 -113 465 -3 465 -2 0 114 c0
63 -3 118 -8 122 -9 9 -894 11 -911 2z"/>
</g>
</svg>
